# xmcd
#
# Track frame offsets: 
#        150
#        12865
#        27325
#        40286
#        53032
#        65506
#        78817
#        90067
#        104120
#        117141
#        130468
#        142013
#        155539
#        169075
#        183960
#        198886
#        211287
#        223009
#
# Disc length: 3126 seconds
#
# Revision: 1
# Processed by: cddbd v1.5.2PL0 Copyright (c) Steve Scherf et al.
# Submitted via: ExactAudioCopy v0.95b2
#
DISCID=f50c3412
DTITLE=Memphis Minnie - The Essential Memphis Minnie Disc 2
DYEAR=1900
DGENRE=General Blues
TTITLE0=Dirty Mother For You
TTITLE1=Cherry Ball Blues
TTITLE2=Frankie Jean (That Trottin' Fool)
TTITLE3=Keep It To Yourself
TTITLE4=Nothing In Rambling
TTITLE5=Black Cat Blues #2
TTITLE6=I'm Waiting On You
TTITLE7=Remember Me Blues
TTITLE8=Black Rat Swing With Little Son Joe
TTITLE9=Georgia Skin
TTITLE10=Keep On Goin'
TTITLE11=Stop Lying On Me
TTITLE12=Ice Man
TTITLE13=Chickasaw Train Blues (Loe Down Dirty Thing)
TTITLE14=Reachin' Pete
TTITLE15=Ma Rainey
TTITLE16=Pigmeat On The Line
TTITLE17=In My Girlish Days
EXTD=submitted william hale
EXTT0=
EXTT1=
EXTT2=
EXTT3=
EXTT4=
EXTT5=
EXTT6=
EXTT7=
EXTT8=
EXTT9=
EXTT10=
EXTT11=
EXTT12=
EXTT13=
EXTT14=
EXTT15=
EXTT16=
EXTT17=
PLAYORDER=
